<svg width="209" height="35" viewBox="0 0 209 35" fill="none" xmlns="http://www.w3.org/2000/svg">
<path d="M23.832 20.232C23.832 24.984 20.352 27.36 13.392 27.36C9.048 27.36 5.94 26.508 4.068 24.804C2.196 23.1 1.26 20.604 1.26 17.316H5.904C5.904 19.596 6.492 21.168 7.668 22.032C8.868 22.896 10.812 23.328 13.5 23.328C15.468 23.328 16.908 23.088 17.82 22.608C18.732 22.128 19.188 21.372 19.188 20.34C19.188 20.052 19.152 19.788 19.08 19.548C19.008 19.284 18.876 19.044 18.684 18.828C18.492 18.612 18.3 18.42 18.108 18.252C17.94 18.06 17.676 17.88 17.316 17.712C16.956 17.52 16.656 17.364 16.416 17.244C16.176 17.124 15.816 16.98 15.336 16.812C14.856 16.644 14.484 16.524 14.22 16.452C13.956 16.356 13.536 16.224 12.96 16.056C12.384 15.864 11.964 15.732 11.7 15.66C10.62 15.3 9.78 15.012 9.18 14.796C8.58 14.58 7.848 14.292 6.984 13.932C6.144 13.572 5.496 13.224 5.04 12.888C4.608 12.528 4.152 12.096 3.672 11.592C3.216 11.088 2.892 10.524 2.7 9.9C2.508 9.252 2.412 8.544 2.412 7.776C2.412 5.688 3.216 4.08 4.824 2.952C6.432 1.824 8.82 1.26 11.988 1.26C15.588 1.26 18.288 2.112 20.088 3.816C21.888 5.496 22.788 7.608 22.788 10.152H18.144C18.144 6.912 16.092 5.292 11.988 5.292C8.7 5.292 7.056 6.156 7.056 7.884C7.056 8.724 7.416 9.384 8.136 9.864C8.856 10.344 10.284 10.932 12.42 11.628C15.684 12.708 17.808 13.488 18.792 13.968C22.128 15.576 23.808 17.664 23.832 20.232ZM35.3365 23.328C37.0885 23.328 38.4685 22.74 39.4765 21.564C40.5085 20.364 41.0245 18.564 41.0245 16.164V8.928H45.6325V27H41.0245V24.444L41.8525 21.672H40.6645C40.2805 23.376 39.5005 24.756 38.3245 25.812C37.1725 26.844 35.6605 27.36 33.7885 27.36C31.5325 27.36 29.7685 26.664 28.4965 25.272C27.2485 23.856 26.6245 21.84 26.6245 19.224V8.928H31.2685V18.504C31.2685 20.256 31.5805 21.504 32.2045 22.248C32.8285 22.968 33.8725 23.328 35.3365 23.328ZM49.2736 8.928H53.9176V10.656L53.0896 13.428H54.2776C55.3576 10.188 57.7576 8.568 61.4776 8.568C63.9976 8.568 65.9776 9.468 67.4176 11.268C68.8816 13.044 69.6136 15.288 69.6136 18C69.6136 20.688 68.8816 22.92 67.4176 24.696C65.9776 26.472 63.9976 27.36 61.4776 27.36C57.7576 27.36 55.3576 25.752 54.2776 22.536H53.0896L53.9176 25.272V33.732H49.2736V8.928ZM53.9176 18C53.9176 19.8 54.4096 21.144 55.3936 22.032C56.4016 22.896 57.7696 23.328 59.4976 23.328C61.2256 23.328 62.5696 22.896 63.5296 22.032C64.4896 21.144 64.9696 19.8 64.9696 18C64.9696 16.176 64.4896 14.82 63.5296 13.932C62.5696 13.044 61.2256 12.6 59.4976 12.6C57.7696 12.6 56.4016 13.044 55.3936 13.932C54.4096 14.82 53.9176 16.176 53.9176 18ZM72.0028 17.748C72.0028 14.916 72.8548 12.684 74.5588 11.052C76.2628 9.396 78.4828 8.568 81.2188 8.568C83.9548 8.568 86.1508 9.36 87.8068 10.944C89.4868 12.528 90.3268 14.676 90.3268 17.388V18.9H76.3948C76.4428 20.316 76.8988 21.456 77.7628 22.32C78.6508 23.16 79.9828 23.58 81.7588 23.58C84.3268 23.58 85.8508 22.608 86.3308 20.664H90.9748C90.6628 22.32 89.7268 23.856 88.1668 25.272C86.6068 26.664 84.4708 27.36 81.7588 27.36C78.5668 27.36 76.1428 26.448 74.4868 24.624C72.8308 22.8 72.0028 20.508 72.0028 17.748ZM76.3948 16.092H85.9348C85.9348 15.012 85.5388 14.124 84.7468 13.428C83.9788 12.732 82.8028 12.384 81.2188 12.384C79.6348 12.384 78.4348 12.744 77.6188 13.464C76.8028 14.16 76.3948 15.036 76.3948 16.092ZM94.0978 27V11.412C94.0978 10.5 94.3378 9.804 94.8178 9.324C95.3218 8.844 96.0298 8.616 96.9418 8.64L108.066 8.928V12.96L98.7418 12.708V27H94.0978ZM138.073 28.404C141.433 28.188 145.849 28.5 151.321 29.34V33.372C146.809 32.676 142.729 32.304 139.081 32.256C135.433 32.232 131.413 32.532 127.021 33.156L126.589 29.376C126.709 29.352 127.237 29.292 128.173 29.196C129.109 29.1 129.733 29.028 130.045 28.98C130.381 28.932 130.969 28.836 131.809 28.692C132.649 28.572 133.309 28.452 133.789 28.332C134.269 28.212 134.845 28.056 135.517 27.864C136.213 27.696 136.837 27.492 137.389 27.252C137.941 27.036 138.457 26.784 138.937 26.496L138.325 25.488C137.077 26.496 135.157 27 132.565 27C129.469 27 126.841 25.812 124.681 23.436C122.521 21.036 121.441 17.964 121.441 14.22C121.441 10.452 122.605 7.356 124.933 4.932C127.261 2.484 130.357 1.26 134.221 1.26C138.061 1.26 141.133 2.472 143.437 4.896C145.765 7.296 146.929 10.428 146.929 14.292C146.929 17.82 146.089 20.748 144.409 23.076C142.729 25.404 140.617 27.18 138.073 28.404ZM128.245 20.772C129.685 22.404 131.677 23.22 134.221 23.22C136.765 23.22 138.745 22.416 140.161 20.808C141.577 19.176 142.285 17.004 142.285 14.292C142.285 11.58 141.565 9.408 140.125 7.776C138.709 6.12 136.741 5.292 134.221 5.292C131.677 5.292 129.685 6.108 128.245 7.74C126.805 9.348 126.085 11.508 126.085 14.22C126.085 16.956 126.805 19.14 128.245 20.772ZM158.594 23.328C160.346 23.328 161.726 22.74 162.734 21.564C163.766 20.364 164.282 18.564 164.282 16.164V8.928H168.89V27H164.282V24.444L165.11 21.672H163.922C163.538 23.376 162.758 24.756 161.582 25.812C160.43 26.844 158.918 27.36 157.046 27.36C154.79 27.36 153.026 26.664 151.754 25.272C150.506 23.856 149.882 21.84 149.882 19.224V8.928H154.526V18.504C154.526 20.256 154.838 21.504 155.462 22.248C156.086 22.968 157.13 23.328 158.594 23.328ZM181.166 6.012C180.614 6.492 179.87 6.732 178.934 6.732C177.998 6.732 177.254 6.492 176.702 6.012C176.15 5.508 175.874 4.836 175.874 3.996C175.874 3.156 176.15 2.496 176.702 2.016C177.254 1.512 177.998 1.26 178.934 1.26C179.846 1.26 180.59 1.512 181.166 2.016C181.742 2.52 182.03 3.18 182.03 3.996C182.03 4.836 181.742 5.508 181.166 6.012ZM172.058 27V22.968H177.17V12.708L173.03 12.96V8.928L178.79 8.568C179.702 8.52 180.398 8.736 180.878 9.216C181.358 9.696 181.598 10.38 181.598 11.268V22.968H186.71V27H172.058ZM189.214 27V19.008L205.306 13.32V12.132L202.57 12.96H189.214V8.928H206.53V16.92L190.438 22.608V23.796L193.174 22.968H206.53V27H189.214Z" fill="black"/>
</svg>
